<?xml version="1.0" encoding="utf-8"?>
<!DOCTYPE svg PUBLIC "-//W3C//DTD SVG 1.1//EN" "http://www.w3.org/Graphics/SVG/1.1/DTD/svg11.dtd">
<svg version="1.1" id="Layer_1" xmlns="http://www.w3.org/2000/svg" xmlns:xlink="http://www.w3.org/1999/xlink" x="0px" y="0px" viewBox="0 0 120 120" enable-background="new 0 0 120 120" xml:space="preserve">
<path fill="#FFFFFF" d="M105.633,43.897H81.035l1.059-4.628c1.059-4.629,1.587-13.225,0.396-19.176
c-1.19-5.95-6.744-7.271-8.859-8.595c-2.116-1.323-5.29,2.38-5.29,2.38s-0.132,1.323,0.265,10.712
c0.396,9.389-19.572,28.301-19.572,28.301l-0.529,0.396c0,0-0.662,33.721,0,35.969c0.793,2.38,7.008,3.967,7.008,3.967h43.111
c0,0,4.364-1.719,6.612-4.761c2.381-3.041,0.926-6.876,0.926-6.876s2.513-1.586,3.703-4.099c1.189-2.513,0-7.67,0-7.67
s2.379-1.853,3.041-4.233c0.662-2.379-1.059-6.479-1.059-6.479s1.455-1.72,2.117-6.877
C114.626,47.071,105.633,43.897,105.633,43.897"/>
<path fill="#FFFFFF" d="M38.909,49.113H16.297c-2.513,0-4.497,1.983-4.497,4.628V91.43c0,2.514,1.984,4.628,4.497,4.628h22.612
c2.514,0,4.496-2.114,4.496-4.628V53.609C43.405,51.096,41.423,49.113,38.909,49.113"/>
</svg>