<?xml version="1.0" encoding="utf-8"?>
<!DOCTYPE svg PUBLIC "-//W3C//DTD SVG 1.1//EN" "http://www.w3.org/Graphics/SVG/1.1/DTD/svg11.dtd">
<svg version="1.1" id="Layer_1" xmlns="http://www.w3.org/2000/svg" xmlns:xlink="http://www.w3.org/1999/xlink" x="0px" y="0px" viewBox="0 0 120 120" enable-background="new 0 0 120 120" xml:space="preserve">
<path fill="#FFFFFF" d="M60.848,21.846c12.665,0,14.166,0.048,19.168,0.276c4.625,0.211,7.137,0.985,8.809,1.634
    c2.214,0.86,3.794,1.889,5.455,3.548c1.66,1.66,2.688,3.24,3.548,5.455c0.649,1.671,1.422,4.184,1.633,8.808
    c0.229,5.003,0.277,6.503,0.277,19.169c0,12.667-0.049,14.167-0.277,19.168c-0.211,4.625-0.983,7.138-1.633,8.81
    c-0.86,2.214-1.888,3.793-3.548,5.453c-1.661,1.66-3.241,2.689-5.455,3.55c-1.672,0.648-4.184,1.423-8.809,1.633
    c-5.002,0.228-6.502,0.276-19.168,0.276c-12.668,0-14.168-0.049-19.169-0.276c-4.625-0.21-7.138-0.984-8.809-1.633
    c-2.214-0.86-3.794-1.89-5.455-3.55c-1.659-1.66-2.687-3.239-3.548-5.453c-0.649-1.672-1.422-4.185-1.633-8.81
    c-0.229-5.001-0.277-6.501-0.277-19.168c0-12.666,0.048-14.166,0.277-19.169c0.211-4.624,0.983-7.137,1.633-8.808
    c0.861-2.215,1.889-3.795,3.548-5.455c1.661-1.659,3.241-2.688,5.455-3.548c1.671-0.649,4.184-1.423,8.809-1.634
    C46.68,21.894,48.182,21.846,60.848,21.846 M60.848,13.298c-12.884,0-14.5,0.054-19.559,0.285
    c-5.049,0.231-8.498,1.032-11.515,2.205c-3.12,1.212-5.766,2.834-8.402,5.472c-2.637,2.637-4.259,5.282-5.472,8.4
    c-1.174,3.019-1.975,6.466-2.205,11.517c-0.231,5.059-0.285,6.675-0.285,19.558s0.054,14.499,0.285,19.558
    c0.23,5.05,1.031,8.498,2.205,11.516c1.213,3.119,2.835,5.765,5.472,8.402s5.282,4.26,8.402,5.472
    c3.017,1.173,6.466,1.974,11.515,2.205c5.059,0.229,6.675,0.284,19.559,0.284c12.883,0,14.498-0.055,19.558-0.284
    c5.049-0.231,8.498-1.032,11.515-2.205c3.119-1.212,5.766-2.834,8.402-5.472s4.259-5.283,5.472-8.402
    c1.173-3.018,1.974-6.466,2.204-11.516c0.232-5.059,0.286-6.675,0.286-19.558s-0.054-14.499-0.286-19.558
    c-0.23-5.05-1.031-8.498-2.204-11.517c-1.213-3.119-2.835-5.764-5.472-8.4c-2.637-2.638-5.283-4.26-8.402-5.472
    c-3.017-1.173-6.466-1.974-11.515-2.205C75.346,13.353,73.73,13.298,60.848,13.298"/>
<path fill="#FFFFFF" d="M60.848,36.375c-13.453,0-24.359,10.906-24.359,24.359c0,13.455,10.906,24.36,24.359,24.36
    c13.452,0,24.358-10.905,24.358-24.36C85.206,47.281,74.3,36.375,60.848,36.375 M60.848,76.547c-8.733,0-15.813-7.078-15.813-15.813
    c0-8.732,7.08-15.812,15.813-15.812c8.732,0,15.813,7.08,15.813,15.812C76.66,69.469,69.58,76.547,60.848,76.547"/>
<path fill="#FFFFFF" d="M91.861,35.414c0,3.144-2.549,5.692-5.691,5.692c-3.145,0-5.693-2.548-5.693-5.692
    c0-3.145,2.549-5.693,5.693-5.693C89.313,29.721,91.861,32.269,91.861,35.414"/>
</svg>