<?xml version="1.0" encoding="utf-8"?>
<!DOCTYPE svg PUBLIC "-//W3C//DTD SVG 1.1//EN" "http://www.w3.org/Graphics/SVG/1.1/DTD/svg11.dtd">
<svg version="1.1" id="Layer_1" xmlns="http://www.w3.org/2000/svg" xmlns:xlink="http://www.w3.org/1999/xlink" x="0px" y="0px" viewBox="0 0 120 120" enable-background="new 0 0 120 120" xml:space="preserve">
<path fill="#FFFFFF" d="M102.637,38.853c0.049,0.921,0.067,1.851,0.067,2.782c0,28.435-21.643,61.221-61.221,61.221
c-12.148,0-23.46-3.563-32.988-9.667c1.676,0.186,3.397,0.304,5.133,0.304c10.082,0,19.358-3.444,26.726-9.219
c-9.426-0.167-17.365-6.396-20.107-14.942c1.315,0.251,2.665,0.391,4.04,0.391c1.968,0,3.87-0.267,5.671-0.757
c-9.844-1.986-17.265-10.673-17.265-21.106v-0.27c2.902,1.608,6.223,2.576,9.749,2.686c-5.772-3.86-9.566-10.452-9.566-17.913
c0-3.942,1.061-7.634,2.914-10.813c10.604,13.019,26.464,21.58,44.349,22.478c-0.372-1.57-0.552-3.22-0.552-4.906
c0-11.872,9.631-21.507,21.508-21.507c6.194,0,11.788,2.613,15.714,6.787c4.895-0.96,9.506-2.75,13.661-5.218
c-1.608,5.021-5.022,9.237-9.459,11.899c4.35-0.513,8.489-1.669,12.354-3.388C110.488,32.031,106.844,35.819,102.637,38.853"/>
</svg>