<?xml version="1.0" encoding="utf-8"?>
<!DOCTYPE svg PUBLIC "-//W3C//DTD SVG 1.1//EN" "http://www.w3.org/Graphics/SVG/1.1/DTD/svg11.dtd">
<svg version="1.1" id="Layer_1" xmlns="http://www.w3.org/2000/svg" xmlns:xlink="http://www.w3.org/1999/xlink" x="0px" y="0px" viewBox="0 0 120 120" enable-background="new 0 0 120 120" xml:space="preserve">
<path fill="#FFFFFF" d="M119.141,31.217c-1.401-5.276-5.53-9.431-10.772-10.843c-9.503-2.562-47.604-2.562-47.604-2.562
    s-38.103,0-47.604,2.562c-5.242,1.412-9.371,5.567-10.772,10.843c-2.546,9.564-2.546,29.518-2.546,29.518s0,19.954,2.546,29.518
    c1.401,5.277,5.53,9.433,10.772,10.843c9.502,2.563,47.604,2.563,47.604,2.563s38.102,0,47.604-2.563
    c5.242-1.41,9.371-5.565,10.772-10.843c2.546-9.563,2.546-29.518,2.546-29.518S121.687,40.781,119.141,31.217 M48.303,78.852V42.619
    l31.846,18.117L48.303,78.852z"/>
</svg>